<svg width="28" height="27" viewBox="0 0 28 27" fill="none" xmlns="http://www.w3.org/2000/svg">
<path d="M18.9583 8.54167L9.04167 18.4583M10.4583 9.95833H10.4725M17.5417 17.0417H17.5558M11.1667 9.95833C11.1667 10.3495 10.8495 10.6667 10.4583 10.6667C10.0671 10.6667 9.75 10.3495 9.75 9.95833C9.75 9.56713 10.0671 9.25 10.4583 9.25C10.8495 9.25 11.1667 9.56713 11.1667 9.95833ZM18.25 17.0417C18.25 17.4329 17.9329 17.75 17.5417 17.75C17.1505 17.75 16.8333 17.4329 16.8333 17.0417C16.8333 16.6505 17.1505 16.3333 17.5417 16.3333C17.9329 16.3333 18.25 16.6505 18.25 17.0417ZM20.1324 3.24128C21.179 3.27115 22.2168 3.6855 23.0156 4.48434C23.8144 5.28317 24.2288 6.3209 24.2587 7.36755C24.2882 8.40328 24.303 8.92115 24.3334 9.04169C24.3985 9.29972 24.3229 9.11719 24.4593 9.34566C24.523 9.45238 24.8788 9.82908 25.5903 10.5823C26.3092 11.3435 26.75 12.3703 26.75 13.5C26.75 14.6297 26.3092 15.6565 25.5903 16.4177C24.8788 17.1709 24.523 17.5476 24.4593 17.6543C24.3229 17.8828 24.3985 17.7003 24.3334 17.9583C24.303 18.0788 24.2882 18.5967 24.2587 19.6324C24.2288 20.6791 23.8144 21.7168 23.0156 22.5157C22.2168 23.3145 21.179 23.7289 20.1324 23.7587C19.0967 23.7883 18.5788 23.803 18.4583 23.8334C18.2002 23.8985 18.3828 23.8229 18.1543 23.9593C18.0476 24.0231 17.6709 24.3788 16.9177 25.0903C16.1565 25.8092 15.1297 26.25 14 26.25C12.8703 26.25 11.8435 25.8092 11.0823 25.0903C10.329 24.3788 9.9524 24.0231 9.84567 23.9593C9.6172 23.8229 9.79973 23.8985 9.5417 23.8334C9.42117 23.803 8.90318 23.7883 7.86754 23.7587C6.82087 23.7289 5.78313 23.3145 4.98429 22.5157C4.18544 21.7168 3.77109 20.6791 3.74123 19.6324C3.71169 18.5967 3.69692 18.0788 3.66652 17.9583C3.60146 17.7002 3.67706 17.8828 3.54062 17.6543C3.47688 17.5476 3.12116 17.1709 2.40971 16.4177C1.69077 15.6564 1.25 14.6297 1.25 13.5C1.25 12.3703 1.69077 11.3436 2.40971 10.5823C3.12116 9.82907 3.47688 9.45243 3.54062 9.3457C3.67706 9.11724 3.60146 9.29976 3.66652 9.04173C3.69692 8.92119 3.71169 8.40332 3.74123 7.36761C3.77109 6.32094 4.18544 5.28319 4.98429 4.48434C5.78313 3.68549 6.82087 3.27114 7.86754 3.24128C8.90328 3.21173 9.42116 3.19696 9.5417 3.16656C9.79973 3.1015 9.6172 3.1771 9.84567 3.04066C9.95239 2.97693 10.3291 2.62116 11.0823 1.90972C11.8435 1.19077 12.8703 0.75 14 0.75C15.1297 0.75 16.1565 1.19078 16.9177 1.90974C17.6709 2.62119 18.0476 2.97691 18.1543 3.04065C18.3828 3.17709 18.2003 3.10149 18.4583 3.16656C18.5788 3.19695 19.0967 3.21173 20.1324 3.24128Z" stroke="white" stroke-width="1.5" stroke-linecap="round" stroke-linejoin="round"/>
</svg>
