<svg width="144" height="189" viewBox="0 0 144 189" fill="none" xmlns="http://www.w3.org/2000/svg">
<g clip-path="url(#clip0_322_3875)">
<path d="M32.2207 108.804L33.0749 116.567L88.9207 116.314L87.6591 107.858L32.2207 108.804Z" fill="#808285"/>
<path d="M110.328 124.662C106.868 124.662 103.538 124.761 100.425 124.947C97.3802 122.226 78.4683 120.134 55.5819 120.134C30.5717 120.134 10.2954 122.633 10.2954 125.718C10.2954 128.803 30.5717 131.302 55.5819 131.302C64.1005 131.302 72.0655 131.013 78.8677 130.507C79.635 133.473 93.4254 135.83 110.328 135.83C127.231 135.83 141.828 133.331 141.828 130.246C141.828 127.161 127.725 124.662 110.328 124.662Z" fill="#BCBEC0"/>
<path d="M95.0983 68.2505C94.6712 68.2505 94.2836 67.9855 94.1373 67.5702L87.513 48.9866L48.5819 51.8222C48.5582 51.8222 48.5344 51.8222 48.5068 51.8222C46.6322 51.8222 45.1017 50.3154 45.0661 48.4488L41.0836 14.5759C41.0796 14.5363 41.0757 14.4968 41.0757 14.4572C41.0757 12.5629 42.6181 11.0205 44.5124 11.0205C44.5322 11.0205 44.5559 11.0205 44.5757 11.0205L99.5593 14.5086C101.438 14.5284 102.964 16.0629 102.964 17.9454V44.668C102.964 46.5505 101.442 48.0849 99.5672 48.1047L96.1186 48.3539V67.2222C96.1186 67.7205 95.7627 68.1437 95.2723 68.2267C95.213 68.2386 95.1537 68.2426 95.0983 68.2426V68.2505Z" fill="#A7A9AC"/>
<path d="M44.5201 12.0447L99.5314 15.5368C100.868 15.5368 101.948 16.6164 101.948 17.9532V44.6758C101.948 46.0125 100.864 47.0922 99.5314 47.0922L95.102 47.4125V67.23L88.2167 47.9108L48.5104 50.8018C47.1737 50.8018 46.0941 49.7221 46.0941 48.3854L42.1076 14.4571C42.1076 13.1243 43.1912 12.0407 44.524 12.0407M44.524 9.99609C42.0641 9.99609 40.063 11.9972 40.063 14.4532C40.063 14.5323 40.0669 14.6113 40.0788 14.6904L44.0534 48.5198C44.1246 50.9164 46.098 52.8424 48.5104 52.8424C48.5579 52.8424 48.6093 52.8424 48.6607 52.8385L86.8167 50.0583L93.18 67.9102C93.4726 68.7328 94.2517 69.2667 95.102 69.2667C95.2167 69.2667 95.3353 69.2588 95.45 69.2351C96.4308 69.065 97.1466 68.2148 97.1466 67.2221V49.3029L99.6184 49.1249C102.039 49.0775 103.992 47.0961 103.992 44.6679V17.9492C103.992 15.517 102.031 13.5317 99.6065 13.4921L44.6466 10.004C44.6031 10.004 44.5596 10 44.5161 10L44.524 9.99609Z" fill="#3D1939"/>
<path d="M54.2965 15.6321L47.6762 15.2129C46.4937 15.2129 45.5366 16.17 45.5366 17.3524L47.4784 33.8637" stroke="white" stroke-width="2.04463" stroke-linecap="round" stroke-linejoin="round"/>
<path d="M99.5314 15.5333L95.7071 15.2881V39.2305C95.7071 40.5672 94.6235 41.6469 93.2907 41.6469L90.2494 41.8683L89.9805 41.8881L88.8613 41.9711L45.7104 45.1152L46.0941 48.3858C46.0941 49.7226 47.1777 50.8022 48.5105 50.8022L88.2167 47.9113L88.8574 49.7107L95.102 67.2305V47.413L99.5314 47.0926C100.868 47.0926 101.948 46.013 101.948 44.6762V17.9497C101.948 16.6129 100.864 15.5333 99.5314 15.5333Z" fill="#6D6E71"/>
<path d="M32.9011 116.313C32.4147 116.313 31.9955 115.898 31.9006 115.324L24.8294 72.6361C24.77 72.2762 24.8491 71.9005 25.0429 71.6197C25.2367 71.335 25.5254 71.1729 25.8339 71.1729H88.2209C88.7074 71.1729 89.1266 71.5881 89.2215 72.1616L96.2927 114.85C96.352 115.21 96.2729 115.585 96.0791 115.866C95.8853 116.151 95.5966 116.313 95.2881 116.313H32.9011Z" fill="#A6A9AC"/>
<path d="M88.2169 72.1892L95.2881 107.723H32.9011L25.8299 72.1892H88.2169ZM88.2169 70.1445H25.8299C25.2169 70.1445 24.6395 70.4174 24.2519 70.892C23.8644 71.3666 23.7062 71.9875 23.8288 72.5886L30.9 108.123C31.0898 109.08 31.9282 109.768 32.9051 109.768H95.2921C95.9051 109.768 96.4825 109.495 96.87 109.02C97.2576 108.546 97.4119 107.925 97.2932 107.324L90.222 71.7897C90.0322 70.8327 89.1938 70.1445 88.2169 70.1445Z" fill="#3D1939"/>
<path d="M88.2172 72.1895H80.2561L85.9787 100.949H31.5527L32.9013 107.723H95.2884L88.2172 72.1895Z" fill="#808285"/>
<path d="M28.0923 83.1797H89.8149" stroke="#3D1939" stroke-width="2.04463" stroke-linecap="round" stroke-linejoin="round"/>
<path d="M30.6392 96.7324H93.0262" stroke="#3D1939" stroke-width="2.04463" stroke-linecap="round" stroke-linejoin="round"/>
<path d="M33.0748 116.577L30.8008 105.464L21.8946 60.5141L7.05615 60.3164" stroke="#3D1939" stroke-width="2.04463" stroke-linecap="round" stroke-linejoin="round"/>
<path d="M14.3964 62.9147H14.3648L4.26025 62.7921C2.89189 62.7763 1.79641 61.6531 1.81618 60.2848C1.832 58.9164 2.96307 57.7735 4.31957 57.8407L14.4241 57.9633C15.7925 57.9791 16.8879 59.1023 16.8682 60.4667C16.8523 61.8232 15.745 62.9147 14.3925 62.9147H14.3964Z" fill="#A6A9AC" stroke="#3D1939" stroke-width="2.04463" stroke-linecap="round" stroke-linejoin="round"/>
<path d="M33.0747 116.566L92.8278 116.312" stroke="#3D1939" stroke-width="2.04463" stroke-linecap="round" stroke-linejoin="round"/>
<path d="M43.3651 126.737C40.2803 126.737 37.769 124.226 37.769 121.141C37.769 118.056 40.2803 115.545 43.3651 115.545C46.4498 115.545 48.9651 118.056 48.9651 121.141C48.9651 124.226 46.4538 126.737 43.3651 126.737Z" fill="#E6DDE2"/>
<path d="M43.3655 116.565C45.8926 116.565 47.9412 118.614 47.9412 121.141C47.9412 123.668 45.8926 125.717 43.3655 125.717C40.8383 125.717 38.7897 123.668 38.7897 121.141C38.7897 118.614 40.8383 116.565 43.3655 116.565ZM43.3655 114.521C39.7152 114.521 36.7451 117.491 36.7451 121.141C36.7451 124.791 39.7152 127.761 43.3655 127.761C47.0157 127.761 49.9858 124.791 49.9858 121.141C49.9858 117.491 47.0157 114.521 43.3655 114.521Z" fill="#3D1939"/>
<path d="M44.943 121.141C44.943 122.011 44.2351 122.719 43.3651 122.719C42.495 122.719 41.7871 122.011 41.7871 121.141C41.7871 120.271 42.495 119.563 43.3651 119.563C44.2351 119.563 44.943 120.271 44.943 121.141Z" fill="#3D1939"/>
<path d="M85.0013 126.737C81.9166 126.737 79.4053 124.226 79.4053 121.141C79.4053 118.056 81.9166 115.545 85.0013 115.545C88.0861 115.545 90.5974 118.056 90.5974 121.141C90.5974 124.226 88.0861 126.737 85.0013 126.737Z" fill="#E6DDE2"/>
<path d="M85.0012 116.565C87.5283 116.565 89.5769 118.614 89.5769 121.141C89.5769 123.668 87.5283 125.717 85.0012 125.717C82.4741 125.717 80.4255 123.668 80.4255 121.141C80.4255 118.614 82.4741 116.565 85.0012 116.565ZM85.0012 114.521C81.3509 114.521 78.3809 117.491 78.3809 121.141C78.3809 124.791 81.3509 127.761 85.0012 127.761C88.6515 127.761 91.6215 124.791 91.6215 121.141C91.6215 117.491 88.6515 114.521 85.0012 114.521Z" fill="#3D1939"/>
<path d="M86.5754 121.141C86.5754 122.011 85.8714 122.719 84.9974 122.719C84.1234 122.719 83.4194 122.011 83.4194 121.141C83.4194 120.271 84.1273 119.563 84.9974 119.563C85.8675 119.563 86.5754 120.271 86.5754 121.141Z" fill="#3D1939"/>
<path d="M88.6634 130.477C87.5086 130.477 86.4408 129.35 86.2787 127.966L82.2132 93.0328C82.051 91.6486 83.0437 90.5215 84.4239 90.5215H136.236C137.616 90.5215 138.605 91.6486 138.443 93.0328L134.377 127.966C134.215 129.35 133.147 130.477 131.992 130.477H88.6634Z" fill="#D1D3D4"/>
<path d="M136.125 91.5378C136.94 91.5378 137.525 92.2062 137.434 93.0288L133.511 127.962C133.42 128.784 132.787 129.453 132.095 129.453H88.5489C87.8608 129.453 87.228 128.784 87.1331 127.962L83.2099 93.0288C83.119 92.2062 83.7043 91.5378 84.519 91.5378H136.117M136.335 89.4932H84.3054C82.3557 89.4932 80.9636 91.079 81.1969 93.0248L85.4088 127.958C85.6421 129.907 87.1489 131.493 88.7625 131.493H131.874C133.487 131.493 134.99 129.907 135.227 127.958L139.439 93.0248C139.673 91.0751 138.281 89.4932 136.335 89.4932Z" fill="#3D1939"/>
<path d="M136.125 91.5371H133.321L130.324 123.231C130.245 124.054 129.612 124.722 128.908 124.722H86.7773L87.1412 127.965C87.2321 128.787 87.8649 129.456 88.557 129.456H132.103C132.791 129.456 133.424 128.787 133.519 127.965L137.442 93.032C137.533 92.2094 136.948 91.5411 136.133 91.5411L136.125 91.5371Z" fill="#6D6E71"/>
<path d="M86.3262 100.293L88.0702 117.31" stroke="white" stroke-width="2.04463" stroke-linecap="round" stroke-linejoin="round"/>
<path d="M95.7464 124.876C95.778 125.323 95.4933 125.687 95.1136 125.687H93.2746C92.895 125.687 92.5509 125.323 92.5153 124.876L90.7475 104.054C90.708 103.603 91.0204 103.243 91.4436 103.243H93.4803C93.9035 103.243 94.2712 103.607 94.3029 104.054L95.7503 124.876H95.7464Z" fill="#8E8E92" stroke="#3D1939" stroke-width="2.04463" stroke-linecap="round" stroke-linejoin="round"/>
<path d="M103.845 124.876C103.861 125.323 103.561 125.687 103.177 125.687H101.338C100.954 125.687 100.63 125.323 100.61 124.876L99.6454 104.054C99.6256 103.603 99.9499 103.243 100.373 103.243H102.41C102.833 103.243 103.189 103.607 103.201 104.054L103.845 124.876Z" fill="#8E8E92" stroke="#3D1939" stroke-width="2.04463" stroke-linecap="round" stroke-linejoin="round"/>
<path d="M111.945 124.876C111.945 125.323 111.629 125.687 111.249 125.687H109.41C109.026 125.687 108.714 125.323 108.714 124.876L108.552 104.054C108.552 103.603 108.888 103.243 109.311 103.243H111.348C111.771 103.243 112.111 103.607 112.107 104.054L111.945 124.876Z" fill="#8E8E92" stroke="#3D1939" stroke-width="2.04463" stroke-linecap="round" stroke-linejoin="round"/>
<path d="M120.041 124.876C120.021 125.323 119.693 125.687 119.313 125.687H117.474C117.09 125.687 116.794 125.323 116.81 124.876L117.454 104.054C117.47 103.603 117.822 103.243 118.245 103.243H120.282C120.705 103.243 121.029 103.607 121.01 104.054L120.045 124.876H120.041Z" fill="#8E8E92" stroke="#3D1939" stroke-width="2.04463" stroke-linecap="round" stroke-linejoin="round"/>
<path d="M128.14 124.876C128.1 125.323 127.76 125.687 127.38 125.687H125.541C125.162 125.687 124.877 125.323 124.909 124.876L126.356 104.054C126.388 103.603 126.756 103.243 127.179 103.243H129.215C129.639 103.243 129.951 103.607 129.911 104.054L128.144 124.876H128.14Z" fill="#8E8E92" stroke="#3D1939" stroke-width="2.04463" stroke-linecap="round" stroke-linejoin="round"/>
<path d="M92.0288 92.6682C91.7994 93.0241 91.3287 93.1269 90.9768 92.8976L89.2723 91.8021C88.9163 91.5727 88.8174 91.1021 89.0429 90.7501L99.618 74.2981C99.8474 73.9461 100.318 73.8433 100.67 74.0687L102.375 75.1642C102.726 75.3936 102.829 75.8642 102.604 76.2162L92.0288 92.6642V92.6682Z" fill="#8E8E92" stroke="#3D1939" stroke-width="2.04463" stroke-linecap="round" stroke-linejoin="round"/>
<path d="M128.623 92.6682C128.852 93.0241 129.323 93.1269 129.675 92.8976L131.379 91.8021C131.735 91.5727 131.838 91.1021 131.609 90.7501L121.033 74.2981C120.804 73.9461 120.333 73.8433 119.981 74.0687L118.277 75.1642C117.925 75.3936 117.818 75.8642 118.048 76.2162L128.623 92.6642V92.6682Z" fill="#8E8E92" stroke="#3D1939" stroke-width="2.04463" stroke-linecap="round" stroke-linejoin="round"/>
<path d="M80.8964 89.4249H139.764C141.1 89.4249 142.188 90.5085 142.188 91.8491V96.1124C142.188 97.4491 141.104 98.5328 139.768 98.5328H80.9043C79.5676 98.5328 78.48 97.4452 78.48 96.1085V91.8452C78.48 90.5085 79.5636 89.4209 80.9043 89.4209L80.8964 89.4249Z" fill="#8E8E92"/>
<path d="M139.76 90.4489C140.535 90.4489 141.16 91.0777 141.16 91.8529V96.1162C141.16 96.8913 140.535 97.5162 139.76 97.5162H80.8924C80.1172 97.5162 79.4924 96.8874 79.4924 96.1162V91.8529C79.4924 91.0777 80.1212 90.4489 80.8924 90.4489H139.76ZM139.76 88.4043H80.8924C78.9941 88.4043 77.4478 89.9506 77.4478 91.8489V96.1122C77.4478 98.0105 78.9941 99.5568 80.8924 99.5568H139.76C141.658 99.5568 143.204 98.0105 143.204 96.1122V91.8489C143.204 89.9506 141.658 88.4043 139.76 88.4043Z" fill="#3D1939"/>
<path d="M139.759 90.4493H136.955V92.5809C136.955 93.356 136.331 93.9809 135.555 93.9809H79.4922V96.1125C79.4922 96.8877 80.121 97.5125 80.8922 97.5125H139.759C140.535 97.5125 141.159 96.8837 141.159 96.1125V91.8493C141.159 91.0741 140.535 90.4453 139.759 90.4453V90.4493Z" fill="#798088"/>
<path d="M56.6646 31.34C56.5526 30.4347 56.478 29.6833 56.4406 29.086C56.4033 28.4793 56.3846 27.7513 56.3846 26.902V24.984H58.2326V26.902C58.2326 27.7607 58.2093 28.4933 58.1626 29.1C58.1253 29.6973 58.0506 30.444 57.9386 31.34H56.6646ZM57.2806 34.112C56.9353 34.112 56.674 34.0327 56.4966 33.874C56.3286 33.706 56.2446 33.44 56.2446 33.076C56.2446 32.7213 56.3286 32.4693 56.4966 32.32C56.6646 32.1707 56.926 32.096 57.2806 32.096C57.6353 32.096 57.8966 32.1707 58.0646 32.32C58.242 32.4693 58.3306 32.7213 58.3306 33.076C58.3306 33.44 58.242 33.706 58.0646 33.874C57.8966 34.0327 57.6353 34.112 57.2806 34.112ZM65.7675 31.172C65.7675 31.508 65.8282 31.7553 65.9495 31.914C66.0708 32.0633 66.2528 32.138 66.4955 32.138H66.9295C66.9762 32.138 67.0088 32.1987 67.0275 32.32C67.0555 32.4413 67.0695 32.7027 67.0695 33.104C67.0695 33.4773 67.0555 33.72 67.0275 33.832C67.0088 33.944 66.9762 34 66.9295 34H66.4815C65.9775 34 65.5575 33.916 65.2215 33.748C64.8948 33.5707 64.6662 33.286 64.5355 32.894C64.3395 33.062 64.0828 33.188 63.7655 33.272C63.4575 33.3467 63.1355 33.384 62.7995 33.384C61.9595 33.384 61.3155 33.1553 60.8675 32.698C60.4288 32.2313 60.2095 31.5407 60.2095 30.626C60.2095 30.1033 60.3262 29.618 60.5595 29.17C60.8022 28.7127 61.1382 28.3487 61.5675 28.078C62.0062 27.798 62.5055 27.658 63.0655 27.658H63.9895V26.748H65.7675V31.172ZM61.9735 30.612C61.9735 30.92 62.0435 31.1533 62.1835 31.312C62.3328 31.4613 62.5708 31.536 62.8975 31.536C63.2522 31.536 63.5228 31.4753 63.7095 31.354C63.9055 31.2233 64.0035 31.0413 64.0035 30.808V29.436H63.0935C62.3468 29.436 61.9735 29.828 61.9735 30.612ZM68.5517 32.138C68.7851 32.138 68.9717 32.0773 69.1117 31.956C69.2611 31.8253 69.3357 31.648 69.3357 31.424V29.184H71.1137V31.368C71.1137 31.8813 71.3751 32.138 71.8977 32.138H72.4297C72.5231 32.138 72.5697 32.4507 72.5697 33.076C72.5697 33.692 72.5231 34 72.4297 34H71.8137C71.0297 34 70.4977 33.776 70.2177 33.328C70.0497 33.5613 69.8257 33.734 69.5457 33.846C69.2751 33.9487 68.9437 34 68.5517 34H66.9277C66.8344 34 66.7877 33.7013 66.7877 33.104C66.7877 32.46 66.8344 32.138 66.9277 32.138H68.5517ZM69.8677 35.456V37.052H65.9197V35.456H69.8677ZM72.9278 32.138C73.1518 32.138 73.3338 32.0773 73.4738 31.956C73.6232 31.8253 73.6978 31.648 73.6978 31.424V24.984H75.4898V31.508C75.4898 32.2827 75.2612 32.894 74.8038 33.342C74.3465 33.7807 73.7258 34 72.9418 34H72.4238C72.3305 34 72.2838 33.7013 72.2838 33.104C72.2838 32.46 72.3305 32.138 72.4238 32.138H72.9278ZM80.5147 32.138C80.5614 32.138 80.5941 32.1987 80.6127 32.32C80.6407 32.4413 80.6547 32.7027 80.6547 33.104C80.6547 33.4773 80.6407 33.72 80.6127 33.832C80.5941 33.944 80.5614 34 80.5147 34H80.0107C79.2267 34 78.6294 33.776 78.2187 33.328C77.8174 32.8707 77.6167 32.222 77.6167 31.382V24.984H79.4087V31.256C79.4087 31.5547 79.4647 31.7787 79.5767 31.928C79.6981 32.068 79.8847 32.138 80.1367 32.138H80.5147ZM81.5536 32.138C82.2629 32.138 82.8462 32.0913 83.3036 31.998C83.7702 31.9047 84.2509 31.718 84.7456 31.438L86.0476 30.696C85.9542 30.3413 85.8142 30.1033 85.6276 29.982C85.4502 29.8513 85.1796 29.786 84.8156 29.786H81.6096L81.8196 27.938H85.1516C85.7396 27.938 86.2156 28.0407 86.5796 28.246C86.9436 28.442 87.2469 28.7827 87.4896 29.268C87.7416 29.744 87.9656 30.416 88.1616 31.284L85.4316 32.978C84.7969 33.37 84.1902 33.6407 83.6116 33.79C83.0329 33.93 82.3189 34 81.4696 34H80.5176C80.4242 34 80.3776 33.7013 80.3776 33.104C80.3776 32.46 80.4242 32.138 80.5176 32.138H81.5536ZM83.2616 26.524V24.928H85.1656V26.524H83.2616Z" fill="#011222"/>
</g>
<path d="M20.9977 167.142C20.9137 166.199 20.8577 165.453 20.8297 164.902C20.8017 164.351 20.7877 163.661 20.7877 162.83V160.772H22.0197V162.83C22.0197 163.689 22.0057 164.398 21.9777 164.958C21.9497 165.518 21.8983 166.246 21.8237 167.142H20.9977ZM21.3897 169.872C21.1283 169.872 20.937 169.811 20.8157 169.69C20.6943 169.559 20.6337 169.349 20.6337 169.06C20.6337 168.78 20.6943 168.579 20.8157 168.458C20.937 168.337 21.1283 168.276 21.3897 168.276C21.651 168.276 21.8423 168.337 21.9637 168.458C22.0943 168.579 22.1597 168.78 22.1597 169.06C22.1597 169.349 22.0943 169.559 21.9637 169.69C21.8423 169.811 21.651 169.872 21.3897 169.872ZM29.6994 167.226C29.6994 167.721 29.7834 168.08 29.9514 168.304C30.1288 168.519 30.3854 168.626 30.7214 168.626H31.0574C31.1041 168.626 31.1368 168.668 31.1554 168.752C31.1834 168.827 31.1974 168.99 31.1974 169.242C31.1974 169.485 31.1834 169.643 31.1554 169.718C31.1368 169.793 31.1041 169.83 31.0574 169.83H30.7214C29.6854 169.83 29.0601 169.387 28.8454 168.5C28.6494 168.715 28.3694 168.878 28.0054 168.99C27.6414 169.093 27.2541 169.144 26.8434 169.144C26.0501 169.144 25.4434 168.929 25.0234 168.5C24.6034 168.071 24.3934 167.441 24.3934 166.61C24.3934 166.087 24.5054 165.611 24.7294 165.182C24.9628 164.743 25.2848 164.398 25.6954 164.146C26.1154 163.885 26.5914 163.754 27.1234 163.754H28.5374V162.788H29.6994V167.226ZM25.5554 166.582C25.5554 167.487 26.0081 167.94 26.9134 167.94C27.4081 167.94 27.8001 167.851 28.0894 167.674C28.3881 167.487 28.5374 167.24 28.5374 166.932V164.93H27.1234C26.6381 164.93 26.2554 165.075 25.9754 165.364C25.6954 165.653 25.5554 166.059 25.5554 166.582ZM32.7327 168.626C33.0967 168.626 33.3861 168.533 33.6007 168.346C33.8154 168.159 33.9227 167.907 33.9227 167.59V165.322H35.0847V167.562C35.0847 167.907 35.1781 168.173 35.3647 168.36C35.5607 168.537 35.8407 168.626 36.2047 168.626H36.5967C36.6901 168.626 36.7367 168.827 36.7367 169.228C36.7367 169.629 36.6901 169.83 36.5967 169.83H36.1627C35.3041 169.83 34.7441 169.555 34.4827 169.004C34.1561 169.555 33.5727 169.83 32.7327 169.83H31.0527C30.9594 169.83 30.9127 169.634 30.9127 169.242C30.9127 168.831 30.9594 168.626 31.0527 168.626H32.7327ZM33.9367 171.594V172.7H30.2407V171.594H33.9367ZM37.0375 168.626C37.3735 168.626 37.6442 168.533 37.8495 168.346C38.0548 168.159 38.1575 167.907 38.1575 167.59V160.772H39.3335V167.604C39.3335 168.295 39.1235 168.841 38.7035 169.242C38.2835 169.634 37.7282 169.83 37.0375 169.83H36.6035C36.5102 169.83 36.4635 169.634 36.4635 169.242C36.4635 168.831 36.5102 168.626 36.6035 168.626H37.0375ZM44.3897 168.626C44.4364 168.626 44.469 168.668 44.4877 168.752C44.5157 168.827 44.5297 168.99 44.5297 169.242C44.5297 169.485 44.5157 169.643 44.4877 169.718C44.469 169.793 44.4364 169.83 44.3897 169.83H44.0257C43.3164 169.83 42.775 169.62 42.4017 169.2C42.0377 168.771 41.8557 168.164 41.8557 167.38V160.772H43.0177V167.324C43.0177 168.192 43.3724 168.626 44.0817 168.626H44.3897ZM45.3765 168.626C46.0765 168.626 46.6598 168.57 47.1265 168.458C47.5932 168.346 48.0738 168.15 48.5685 167.87L50.6965 166.624C50.5472 166.12 50.3418 165.77 50.0805 165.574C49.8285 165.378 49.4458 165.28 48.9325 165.28H45.6565L45.8105 164.062H49.1285C49.6885 164.062 50.1505 164.155 50.5145 164.342C50.8785 164.529 51.1818 164.837 51.4245 165.266C51.6672 165.686 51.8772 166.269 52.0545 167.016L49.1145 168.836C48.5172 169.209 47.9432 169.471 47.3925 169.62C46.8418 169.76 46.1558 169.83 45.3345 169.83H44.3965C44.3032 169.83 44.2565 169.634 44.2565 169.242C44.2565 168.831 44.3032 168.626 44.3965 168.626H45.3765ZM47.4205 162.424V161.262H48.9045V162.424H47.4205ZM64.6959 168.626C65.0319 168.626 65.3026 168.533 65.5079 168.346C65.7133 168.159 65.8159 167.912 65.8159 167.604V165.322H66.9779V167.632C66.9779 168.313 66.7679 168.85 66.3479 169.242C65.9373 169.634 65.3866 169.83 64.6959 169.83H59.6839C58.8626 169.83 58.2419 169.615 57.8219 169.186C57.4113 168.757 57.2059 168.164 57.2059 167.408V165.322H58.3679V167.254C58.3679 168.169 58.8299 168.626 59.7539 168.626H64.6959ZM63.9259 163.04V164.146H60.2299V163.04H63.9259ZM72.2195 168.626C72.5462 168.626 72.8075 168.556 73.0035 168.416C73.2088 168.276 73.3115 168.094 73.3115 167.87C73.3115 167.683 73.2368 167.375 73.0875 166.946C72.9382 166.517 72.5462 165.434 71.9115 163.698C71.8835 163.623 71.8555 163.553 71.8275 163.488C71.7995 163.413 71.7762 163.348 71.7575 163.292L72.8355 162.802L74.4735 167.45C74.6228 167.879 74.7908 168.183 74.9775 168.36C75.1642 168.537 75.4208 168.626 75.7475 168.626H76.0415C76.1348 168.626 76.1815 168.831 76.1815 169.242C76.1815 169.494 76.1675 169.657 76.1395 169.732C76.1208 169.797 76.0882 169.83 76.0415 169.83H75.7055C75.2762 169.83 74.9215 169.76 74.6415 169.62C74.3615 169.48 74.1422 169.256 73.9835 168.948C73.8062 169.256 73.5728 169.48 73.2835 169.62C73.0035 169.76 72.6488 169.83 72.2195 169.83H68.9435L68.8315 168.626H72.2195ZM79.4209 168.626C79.7569 168.626 80.0275 168.537 80.2329 168.36C80.4382 168.173 80.5409 167.917 80.5409 167.59V165.322H81.7169V167.604C81.7169 168.295 81.5069 168.841 81.0869 169.242C80.6669 169.634 80.1115 169.83 79.4209 169.83H76.0469C75.9535 169.83 75.9069 169.634 75.9069 169.242C75.9069 168.831 75.9535 168.626 76.0469 168.626H79.4209ZM79.8829 171.594V172.7H76.1869V171.594H79.8829ZM82.2755 172.042C83.0688 172.042 83.6895 171.809 84.1375 171.342C84.5855 170.885 84.8095 170.245 84.8095 169.424V165.322H85.9715V167.548C85.9715 167.893 86.0695 168.159 86.2655 168.346C86.4708 168.533 86.7648 168.626 87.1475 168.626H87.3295C87.4228 168.626 87.4695 168.831 87.4695 169.242C87.4695 169.634 87.4228 169.83 87.3295 169.83H87.1475C86.8955 169.83 86.6621 169.788 86.4475 169.704C86.2328 169.611 86.0741 169.494 85.9715 169.354V169.522C85.9621 170.269 85.8035 170.922 85.4955 171.482C85.1875 172.051 84.7581 172.485 84.2075 172.784C83.6568 173.092 83.0221 173.246 82.3035 173.246H81.9115L81.7995 172.042H82.2755ZM88.3062 168.626C89.0062 168.626 89.5895 168.57 90.0562 168.458C90.5228 168.346 91.0035 168.15 91.4982 167.87L93.6262 166.624C93.4768 166.12 93.2715 165.77 93.0102 165.574C92.7582 165.378 92.3755 165.28 91.8622 165.28H88.5862L88.7402 164.062H92.0582C92.6182 164.062 93.0802 164.155 93.4442 164.342C93.8082 164.529 94.1115 164.837 94.3542 165.266C94.5968 165.686 94.8068 166.269 94.9842 167.016L92.0442 168.836C91.4468 169.209 90.8728 169.471 90.3222 169.62C89.7715 169.76 89.0855 169.83 88.2642 169.83H87.3262C87.2328 169.83 87.1862 169.634 87.1862 169.242C87.1862 168.831 87.2328 168.626 87.3262 168.626H88.3062ZM90.3502 162.424V161.262H91.8342V162.424H90.3502ZM103.132 168.626C103.458 168.626 103.72 168.556 103.916 168.416C104.121 168.276 104.224 168.094 104.224 167.87C104.224 167.683 104.149 167.375 104 166.946C103.85 166.517 103.458 165.434 102.824 163.698C102.796 163.623 102.768 163.553 102.74 163.488C102.712 163.413 102.688 163.348 102.67 163.292L103.748 162.802L105.386 167.45C105.535 167.879 105.703 168.183 105.89 168.36C106.076 168.537 106.333 168.626 106.66 168.626H106.954C107.047 168.626 107.094 168.831 107.094 169.242C107.094 169.494 107.08 169.657 107.052 169.732C107.033 169.797 107 169.83 106.954 169.83H106.618C106.188 169.83 105.834 169.76 105.554 169.62C105.274 169.48 105.054 169.256 104.896 168.948C104.718 169.256 104.485 169.48 104.196 169.62C103.916 169.76 103.561 169.83 103.132 169.83H99.8556L99.7436 168.626H103.132ZM108.639 168.626C109.003 168.626 109.292 168.533 109.507 168.346C109.722 168.159 109.829 167.907 109.829 167.59V165.322H110.991V167.562C110.991 167.907 111.084 168.173 111.271 168.36C111.467 168.537 111.747 168.626 112.111 168.626H112.503C112.596 168.626 112.643 168.827 112.643 169.228C112.643 169.629 112.596 169.83 112.503 169.83H112.069C111.21 169.83 110.65 169.555 110.389 169.004C110.062 169.555 109.479 169.83 108.639 169.83H106.959C106.866 169.83 106.819 169.634 106.819 169.242C106.819 168.831 106.866 168.626 106.959 168.626H108.639ZM107.673 172.756V171.594H109.157V172.756H107.673ZM113.602 168.626C114.012 168.626 114.33 168.528 114.554 168.332C114.787 168.136 114.904 167.865 114.904 167.52V165.322H116.08V167.52C116.08 168.257 116.495 168.626 117.326 168.626C117.736 168.626 118.054 168.528 118.278 168.332C118.511 168.136 118.628 167.865 118.628 167.52V165.322H119.79V167.52C119.79 167.875 119.888 168.15 120.084 168.346C120.289 168.533 120.588 168.626 120.98 168.626C121.372 168.626 121.67 168.533 121.876 168.346C122.081 168.15 122.184 167.875 122.184 167.52V165.322H123.346V167.492C123.346 168.22 123.131 168.794 122.702 169.214C122.282 169.625 121.708 169.83 120.98 169.83C120.037 169.83 119.43 169.541 119.16 168.962C118.814 169.541 118.203 169.83 117.326 169.83C116.336 169.83 115.706 169.541 115.436 168.962C115.09 169.541 114.479 169.83 113.602 169.83H112.51C112.416 169.83 112.37 169.634 112.37 169.242C112.37 168.831 112.416 168.626 112.51 168.626H113.602Z" fill="#666872"/>
<defs>
<clipPath id="clip0_322_3875">
<rect width="142.409" height="125.83" fill="white" transform="translate(0.795898 10)"/>
</clipPath>
</defs>
</svg>
