<svg width="115" height="64" viewBox="0 0 115 64" fill="none" xmlns="http://www.w3.org/2000/svg">
<path d="M96.9135 14H95.0865C93.9341 14 93 14.9341 93 16.0865V17.9135C93 19.0659 93.9341 20 95.0865 20H96.9135C98.0659 20 99 19.0659 99 17.9135V16.0865C99 14.9341 98.0659 14 96.9135 14Z" fill="white"/>
<path d="M90.9135 21H89.0865C87.9341 21 87 21.9341 87 23.0865V24.9135C87 26.0659 87.9341 27 89.0865 27H90.9135C92.0659 27 93 26.0659 93 24.9135V23.0865C93 21.9341 92.0659 21 90.9135 21Z" fill="white"/>
<path d="M96.9135 27H95.0865C93.9341 27 93 27.9341 93 29.0865V30.9135C93 32.0659 93.9341 33 95.0865 33H96.9135C98.0659 33 99 32.0659 99 30.9135V29.0865C99 27.9341 98.0659 27 96.9135 27Z" fill="white"/>
<path d="M103.914 21H102.086C100.934 21 100 21.9341 100 23.0865V24.9135C100 26.0659 100.934 27 102.086 27H103.914C105.066 27 106 26.0659 106 24.9135V23.0865C106 21.9341 105.066 21 103.914 21Z" fill="white"/>
<path d="M6.03868 59.555L9.74232 62.7141C10.2586 63.1541 9.94701 63.9991 9.26842 63.9991C9.09509 63.9991 8.92636 63.9374 8.79452 63.8251L4.19193 59.9048C4.06009 59.7925 3.89137 59.7309 3.71803 59.7309H3.19342C2.78959 59.7309 2.4632 60.0576 2.4632 60.4608V63.2701C2.4632 63.6732 2.13589 64 1.73298 64H1.73022C1.32639 64 1 63.6732 1 63.2701V54.7299C1 54.3268 1.32731 54 1.73022 54H1.73298C2.13682 54 2.4632 54.3268 2.4632 54.7299V57.5392C2.4632 57.9424 2.79051 58.2691 3.19342 58.2691H3.71803C3.89137 58.2691 4.06009 58.2075 4.19193 58.0952L8.79452 54.1749C8.92636 54.0626 9.09509 54.0009 9.26842 54.0009C9.94701 54.0009 10.2586 54.845 9.74232 55.2859L6.03868 58.4468C5.69755 58.7386 5.69755 59.266 6.03868 59.5569V59.555Z" fill="#79D52E"/>
<path d="M30.466 58.2148H23.228C22.8184 58.2148 22.4863 58.5463 22.4863 58.9551V58.956C22.4863 59.3649 22.8184 59.6963 23.228 59.6963H30.466C30.8756 59.6963 31.2077 59.3649 31.2077 58.956V58.9551C31.2077 58.5463 30.8756 58.2148 30.466 58.2148Z" fill="#79D52E"/>
<path d="M31.0003 62.5166H22.6811C22.2715 62.5166 21.9395 62.848 21.9395 63.2569V63.2597C21.9395 63.6685 22.2715 63.9999 22.6811 63.9999H31.0003C31.4099 63.9999 31.742 63.6685 31.742 63.2597V63.2569C31.742 62.848 31.4099 62.5166 31.0003 62.5166Z" fill="#79D52E"/>
<path d="M31.0003 53.8311H22.6811C22.2715 53.8311 21.9395 54.1625 21.9395 54.5713V54.5722C21.9395 54.9811 22.2715 55.3125 22.6811 55.3125H31.0003C31.4099 55.3125 31.742 54.9811 31.742 54.5722V54.5713C31.742 54.1625 31.4099 53.8311 31.0003 53.8311Z" fill="#79D52E"/>
<path d="M54.1956 62.5166H45.8745C45.4649 62.5166 45.1328 62.848 45.1328 63.2569V63.2597C45.1328 63.6685 45.4649 63.9999 45.8745 63.9999H54.1956C54.6052 63.9999 54.9372 63.6685 54.9372 63.2597V63.2569C54.9372 62.848 54.6052 62.5166 54.1956 62.5166Z" fill="#79D52E"/>
<path d="M53.6595 58.2148H46.4233C46.0137 58.2148 45.6816 58.5463 45.6816 58.9551V58.956C45.6816 59.3649 46.0137 59.6963 46.4233 59.6963H53.6595C54.0691 59.6963 54.4011 59.3649 54.4011 58.956V58.9551C54.4011 58.5463 54.0691 58.2148 53.6595 58.2148Z" fill="#79D52E"/>
<path d="M54.1956 53.8311H45.8745C45.4649 53.8311 45.1328 54.1625 45.1328 54.5713V54.5722C45.1328 54.9811 45.4649 55.3125 45.8745 55.3125H54.1956C54.6052 55.3125 54.9372 54.9811 54.9372 54.5722V54.5713C54.9372 54.1625 54.6052 53.8311 54.1956 53.8311Z" fill="#79D52E"/>
<path d="M65.0364 59.5577L68.7414 62.7153C69.2577 63.1552 68.9461 64 68.2674 64H68.2665C68.0931 64 67.9244 63.9383 67.7925 63.8251L63.1913 59.9056C63.0595 59.7933 62.8907 59.7307 62.7174 59.7307H62.1909C61.787 59.7307 61.4606 60.0574 61.4606 60.4605V63.2693C61.4606 63.6724 61.1332 63.9991 60.7303 63.9991C60.3264 63.9991 60 63.6724 60 63.2693V54.7307C60 54.3276 60.3273 54.0009 60.7303 54.0009C61.1342 54.0009 61.4606 54.3276 61.4606 54.7307V57.5395C61.4606 57.9426 61.7879 58.2693 62.1909 58.2693H62.7174C62.8907 58.2693 63.0595 58.2076 63.1913 58.0944L67.7925 54.1749C67.9244 54.0626 68.0931 54 68.2665 54H68.2683C68.947 54 69.2587 54.8448 68.7423 55.2847L65.0364 58.4451C64.6943 58.7368 64.6953 59.2641 65.0364 59.5549V59.5577Z" fill="white"/>
<path d="M90.3796 62.5166H82.0586C81.6489 62.5166 81.3169 62.848 81.3169 63.2569V63.2597C81.3169 63.6685 81.6489 63.9999 82.0586 63.9999H90.3796C90.7892 63.9999 91.1213 63.6685 91.1213 63.2597V63.2569C91.1213 62.848 90.7892 62.5166 90.3796 62.5166Z" fill="white"/>
<path d="M89.8435 58.2148H82.6074C82.1978 58.2148 81.8657 58.5463 81.8657 58.9551V58.956C81.8657 59.3649 82.1978 59.6963 82.6074 59.6963H89.8435C90.2532 59.6963 90.5852 59.3649 90.5852 58.956V58.9551C90.5852 58.5463 90.2532 58.2148 89.8435 58.2148Z" fill="white"/>
<path d="M90.3796 53.8311H82.0586C81.6489 53.8311 81.3169 54.1625 81.3169 54.5713V54.5722C81.3169 54.9811 81.6489 55.3125 82.0586 55.3125H90.3796C90.7892 55.3125 91.1213 54.9811 91.1213 54.5722V54.5713C91.1213 54.1625 90.7892 53.8311 90.3796 53.8311Z" fill="white"/>
<path d="M113.198 62.5166H104.877C104.468 62.5166 104.136 62.848 104.136 63.2569V63.2597C104.136 63.6685 104.468 63.9999 104.877 63.9999H113.198C113.608 63.9999 113.94 63.6685 113.94 63.2597V63.2569C113.94 62.848 113.608 62.5166 113.198 62.5166Z" fill="white"/>
<path d="M113.94 54.5713C113.94 54.9811 113.608 55.3125 113.199 55.3125H104.876C104.467 55.3125 104.136 54.9811 104.136 54.5722C104.136 54.1624 104.468 53.8311 104.876 53.8311H113.199C113.609 53.8311 113.94 54.1624 113.94 54.5713Z" fill="white"/>
<path d="M112.662 58.2148H105.426C105.017 58.2148 104.685 58.5463 104.685 58.9551V58.956C104.685 59.3649 105.017 59.6963 105.426 59.6963H112.662C113.072 59.6963 113.404 59.3649 113.404 58.956V58.9551C113.404 58.5463 113.072 58.2148 112.662 58.2148Z" fill="white"/>
<path d="M27 22.6453V24.5248C27 25.7399 26.0114 26.724 24.7929 26.724H22.5199C21.3004 26.724 20.3127 27.709 20.3127 28.9232V30.8008C20.3127 32.0159 19.3241 33 18.1056 33H16.4224C15.2029 33 14.2152 32.015 14.2152 30.8008V28.9232C14.2152 27.7081 13.2267 26.724 12.0081 26.724H10.2071C8.98765 26.724 8 25.7389 8 24.5248V22.6453C8 21.4302 8.98858 20.4461 10.2071 20.4461H12.0081C13.2276 20.4461 14.2152 19.461 14.2152 18.2469V16.1992C14.2152 14.9841 15.2038 14 16.4224 14H18.1056C19.3251 14 20.3127 14.985 20.3127 16.1992V18.2469C20.3127 19.462 21.3013 20.4461 22.5199 20.4461H24.7929C26.0123 20.4461 27 21.4311 27 22.6453Z" fill="white"/>
<path d="M51.4818 0.261661H50.6372C50.7766 0.246726 50.9168 0.239258 51.0599 0.239258C51.203 0.239258 51.3433 0.246726 51.4818 0.261661Z" fill="white"/>
<path d="M54.9517 4.1618V42.9951C54.9517 45.1487 53.2018 46.8953 51.0441 46.8953C48.8865 46.8953 47.1366 45.1487 47.1366 42.9951V35.1361L40.0491 45.1776C39.3421 46.1793 38.1926 46.7748 36.9656 46.7748H4.31539C2.23255 46.7748 0.543457 45.089 0.543457 43.0101V43.0082C0.543457 40.9284 2.23255 39.2425 4.31632 39.2425H33.6762C34.5507 39.2425 35.3719 38.8243 35.8853 38.1167L45.4138 24.9731C46.1041 24.0209 46.1041 22.7346 45.4138 21.7824L36.0705 8.89461C35.558 8.18796 34.7368 7.76882 33.8623 7.76882H4.31539C2.23161 7.76882 0.543457 6.08293 0.543457 4.00404C0.543457 2.96413 0.965262 2.02316 1.64801 1.34171C2.33075 0.660263 3.2735 0.239258 4.31539 0.239258H37.1414C38.375 0.239258 39.5301 0.840427 40.2353 1.85047C42.536 5.14383 44.8368 8.4372 47.1366 11.7306V4.1618C47.1366 2.00823 48.8865 0.261661 51.0441 0.261661C53.2018 0.261661 54.9517 2.00823 54.9517 4.1618Z" fill="white"/>
<path d="M62.9351 0.261661H63.7796C63.6402 0.246726 63.5 0.239258 63.3569 0.239258C63.2138 0.239258 63.0735 0.246726 62.9351 0.261661Z" fill="#79D52E"/>
<path d="M59.4653 4.1618V42.9951C59.4653 45.1487 61.2152 46.8953 63.3729 46.8953C65.5305 46.8953 67.2804 45.1487 67.2804 42.9951V35.1361L74.3679 45.1776C75.0749 46.1793 76.2244 46.7748 77.4515 46.7748H110.102C112.184 46.7748 113.874 45.089 113.874 43.0101V43.0082C113.874 40.9284 112.184 39.2425 110.101 39.2425H80.7408C79.8663 39.2425 79.0451 38.8243 78.5317 38.1167L69.0032 24.9731C68.313 24.0209 68.313 22.7346 69.0032 21.7824L78.3465 8.89461C78.859 8.18796 79.6802 7.76882 80.5547 7.76882H110.102C112.185 7.76882 113.874 6.08293 113.874 4.00404C113.874 2.96413 113.452 2.02316 112.769 1.34171C112.086 0.660263 111.144 0.239258 110.102 0.239258H77.2756C76.042 0.239258 74.8869 0.840427 74.1818 1.85047C71.881 5.14383 69.5802 8.4372 67.2804 11.7306V4.1618C67.2804 2.00823 65.5305 0.261661 63.3729 0.261661C61.2152 0.261661 59.4653 2.00823 59.4653 4.1618Z" fill="#79D52E"/>
</svg>
