<svg width="18" height="18" viewBox="0 0 18 18" fill="none" xmlns="http://www.w3.org/2000/svg">
<path d="M12.6667 17.25H15.7833C16.2967 17.25 16.5534 17.25 16.7495 17.1501C16.922 17.0622 17.0622 16.922 17.1501 16.7495C17.25 16.5534 17.25 16.2967 17.25 15.7833V2.21667C17.25 1.70329 17.25 1.44659 17.1501 1.25051C17.0622 1.07803 16.922 0.937795 16.7495 0.849911C16.5534 0.75 16.2967 0.75 15.7833 0.75H10.4667C9.95329 0.75 9.69659 0.75 9.50051 0.849911C9.32803 0.937795 9.18779 1.07803 9.09991 1.25051C9 1.44659 9 1.70329 9 2.21667V3.5M7.16667 14.5V17.25M4.41667 17.25H9.91667M3.68333 14.5H10.65C11.6768 14.5 12.1901 14.5 12.5823 14.3002C12.9273 14.1244 13.2077 13.8439 13.3835 13.499C13.5833 13.1068 13.5833 12.5934 13.5833 11.5667V6.43333C13.5833 5.40657 13.5833 4.89319 13.3835 4.50102C13.2077 4.15605 12.9273 3.87559 12.5823 3.69982C12.1901 3.5 11.6768 3.5 10.65 3.5H3.68333C2.65657 3.5 2.14319 3.5 1.75102 3.69982C1.40605 3.87559 1.12559 4.15605 0.949821 4.50102C0.75 4.89319 0.75 5.40657 0.75 6.43333V11.5667C0.75 12.5934 0.75 13.1068 0.949821 13.499C1.12559 13.8439 1.40605 14.1244 1.75102 14.3002C2.14319 14.5 2.65657 14.5 3.68333 14.5Z" stroke="#AFB1BA" stroke-width="1.5" stroke-linecap="round"/>
</svg>
