<svg width="18" height="16" viewBox="0 0 18 16" fill="none" xmlns="http://www.w3.org/2000/svg">
<path d="M16.7917 7.08301L15.1779 3.97068C14.7319 3.10334 14.5089 2.66967 14.1805 2.35311C13.89 2.07315 13.5416 1.8605 13.1598 1.73027C12.728 1.58301 12.2404 1.58301 11.2651 1.58301H6.73492C5.75961 1.58301 5.27195 1.58301 4.84025 1.73027C4.45845 1.8605 4.10997 2.07315 3.81954 2.35311C3.49114 2.66967 3.26811 3.10334 2.82205 3.97068L1.20833 7.08301M16.7917 7.08301C16.9733 7.43617 17.0353 7.58222 17.0994 7.76774C17.1563 7.93249 17.1974 8.10228 17.2221 8.27482C17.25 8.4691 17.25 8.66767 17.25 9.0648V10.0163C17.25 11.5565 17.25 12.3266 16.9503 12.9148C16.6866 13.4323 16.2659 13.853 15.7485 14.1166C15.1602 14.4163 14.3901 14.4163 12.85 14.4163H5.15C3.60986 14.4163 2.83978 14.4163 2.25153 14.1166C1.73408 13.853 1.31338 13.4323 1.04973 12.9148C0.75 12.3266 0.75 11.5565 0.75 10.0163V9.0648C0.75 8.66767 0.75 8.4691 0.777875 8.27482C0.80263 8.10228 0.843732 7.93249 0.900626 7.76774C0.964693 7.58222 1.02671 7.43617 1.20833 7.08301M16.7917 7.08301H1.20833M11.75 10.7497H13.5833" stroke="#AFB1BA" stroke-width="1.5" stroke-linecap="round" stroke-linejoin="round"/>
</svg>
