<svg width="16" height="18" viewBox="0 0 16 18" fill="none" xmlns="http://www.w3.org/2000/svg">
<path d="M5.25016 0.75V2.95C5.25016 3.46338 5.25016 3.72007 5.35007 3.91616C5.43796 4.08864 5.57819 4.22887 5.75067 4.31676C5.94676 4.41667 6.20345 4.41667 6.71683 4.41667H8.36683C8.88021 4.41667 9.1369 4.41667 9.33299 4.31676C9.50547 4.22887 9.6457 4.08864 9.73358 3.91616C9.8335 3.72007 9.8335 3.46338 9.8335 2.95V0.753666M14.4168 6.36229V14.3167C14.4168 15.3434 14.4168 15.8568 14.217 16.249C14.0412 16.5939 13.7608 16.8744 13.4158 17.0502C13.0236 17.25 12.5103 17.25 11.4835 17.25H4.51683C3.49007 17.25 2.97668 17.25 2.58451 17.0502C2.23955 16.8744 1.95909 16.5939 1.78332 16.249C1.5835 15.8568 1.5835 15.3434 1.5835 14.3167V3.68333C1.5835 2.65657 1.5835 2.14319 1.78332 1.75102C1.95909 1.40605 2.23955 1.12559 2.58451 0.949821C2.97668 0.75 3.49007 0.75 4.51683 0.75H9.34033C9.85806 0.75 10.1169 0.75 10.3559 0.815843C10.5677 0.874173 10.7672 0.970073 10.945 1.09897C11.1457 1.24447 11.3075 1.44661 11.6309 1.85089L13.774 4.52985C14.0123 4.82765 14.1314 4.97655 14.2161 5.14235C14.2913 5.28945 14.3462 5.44604 14.3794 5.60785C14.4168 5.79024 14.4168 5.98093 14.4168 6.36229ZM9.8335 12.2083C9.8335 13.474 8.80748 14.5 7.54183 14.5C6.27618 14.5 5.25016 13.474 5.25016 12.2083C5.25016 10.9427 6.27618 9.91667 7.54183 9.91667C8.80748 9.91667 9.8335 10.9427 9.8335 12.2083Z" stroke="#AFB1BA" stroke-width="1.5" stroke-linecap="round" stroke-linejoin="round"/>
</svg>
