<svg width="19" height="19" viewBox="0 0 19 19" fill="none" xmlns="http://www.w3.org/2000/svg">
<path d="M2.16875 11.6017C2.44039 11.1747 2.83301 10.8176 3.32568 10.5879C4.2433 10.16 5.33404 10.557 5.76193 11.4746L7.3116 14.7979C7.73949 15.7155 7.3425 16.8062 6.42488 17.2341C5.04847 17.8759 3.41235 17.2805 2.77052 15.904L1.9956 14.2422C1.58351 13.3585 1.68149 12.3677 2.16875 11.6017ZM2.16875 11.6017C1.89716 10.7838 1.75013 9.90908 1.75013 9C1.75013 4.44365 5.44378 0.75 10.0001 0.75C14.5565 0.75 18.2501 4.44365 18.2501 9C18.2501 9.94054 18.0927 10.8443 17.8029 11.6864M17.8029 11.6864C17.5304 11.222 17.1191 10.8326 16.5942 10.5879C15.6765 10.16 14.5858 10.557 14.1579 11.4746L12.6082 14.7979C12.1804 15.7155 12.5773 16.8062 13.495 17.2341C14.8714 17.8759 16.5075 17.2805 17.1493 15.904L17.9242 14.2422C18.3213 13.3907 18.2448 12.4398 17.8029 11.6864ZM15.0992 2.51373L13.6675 4.41609C12.7236 3.85483 11.1701 3.49995 10.0017 3.49995C8.80979 3.49995 7.29142 3.83423 6.33507 4.41662L4.89954 2.51543" stroke="#AFB1BA" stroke-width="1.5" stroke-linejoin="round"/>
</svg>
