<svg width="18" height="18" viewBox="0 0 18 18" fill="none" xmlns="http://www.w3.org/2000/svg">
<path d="M0.75 13.5833H17.25M9 5.33333L7.16667 9M9 5.33333L10.8333 9M9 5.33333H4.875C4.26721 5.33333 3.68432 5.09189 3.25455 4.66212C2.82478 4.23235 2.58333 3.64945 2.58333 3.04167C2.58333 2.43388 2.82478 1.85098 3.25455 1.42121C3.68432 0.991443 4.26721 0.75 4.875 0.75C8.08333 0.75 9 5.33333 9 5.33333ZM9 5.33333H13.125C13.7328 5.33333 14.3157 5.09189 14.7455 4.66212C15.1752 4.23235 15.4167 3.64945 15.4167 3.04167C15.4167 2.43388 15.1752 1.85098 14.7455 1.42121C14.3157 0.991443 13.7328 0.75 13.125 0.75C9.91667 0.75 9 5.33333 9 5.33333ZM3.68333 17.25H14.3167C15.3434 17.25 15.8568 17.25 16.249 17.0502C16.5939 16.8744 16.8744 16.5939 17.0502 16.249C17.25 15.8568 17.25 15.3434 17.25 14.3167V8.26667C17.25 7.2399 17.25 6.72652 17.0502 6.33435C16.8744 5.98939 16.5939 5.70892 16.249 5.53315C15.8568 5.33333 15.3434 5.33333 14.3167 5.33333H3.68333C2.65657 5.33333 2.14319 5.33333 1.75102 5.53315C1.40605 5.70892 1.12559 5.98939 0.949821 6.33435C0.75 6.72652 0.75 7.2399 0.75 8.26667V14.3167C0.75 15.3434 0.75 15.8568 0.949821 16.249C1.12559 16.5939 1.40605 16.8744 1.75102 17.0502C2.14319 17.25 2.65657 17.25 3.68333 17.25Z" stroke="#AFB1BA" stroke-width="1.5" stroke-linecap="round" stroke-linejoin="round"/>
</svg>
