<svg width="18" height="14" viewBox="0 0 18 14" fill="none" xmlns="http://www.w3.org/2000/svg">
<path d="M4.41667 7H8.08333M6.25 5.16667V8.83333M11.75 7.91667H11.7592M13.5833 6.08333H13.5925M3.68333 12.5H14.3167C15.3434 12.5 15.8568 12.5 16.249 12.3002C16.5939 12.1244 16.8744 11.8439 17.0502 11.499C17.25 11.1068 17.25 10.5934 17.25 9.56667V4.43333C17.25 3.40657 17.25 2.89319 17.0502 2.50102C16.8744 2.15605 16.5939 1.87559 16.249 1.69982C15.8568 1.5 15.3434 1.5 14.3167 1.5H3.68333C2.65657 1.5 2.14319 1.5 1.75102 1.69982C1.40605 1.87559 1.12559 2.15605 0.949821 2.50102C0.75 2.89319 0.75 3.40657 0.75 4.43333V9.56667C0.75 10.5934 0.75 11.1068 0.949821 11.499C1.12559 11.8439 1.40605 12.1244 1.75102 12.3002C2.14319 12.5 2.65657 12.5 3.68333 12.5Z" stroke="#AFB1BA" stroke-width="1.5" stroke-linecap="round" stroke-linejoin="round"/>
</svg>
