<svg width="40" height="40" viewBox="0 0 40 40" fill="none" xmlns="http://www.w3.org/2000/svg">
<path d="M-6.10352e-05 8.29286C-6.10352e-05 3.71392 3.71191 0.00195312 8.29085 0.00195312H31.709C36.288 0.00195312 39.9999 3.71392 39.9999 8.29286V31.711C39.9999 36.29 36.288 40.002 31.709 40.002H8.29085C3.71191 40.002 -6.10352e-05 36.29 -6.10352e-05 31.711V8.29286Z" fill="#EAEBF0"/>
<path d="M16.1043 10.8291C13.1317 10.8291 10.713 13.2493 10.713 16.2227V23.9259C10.713 26.8989 13.1331 29.318 16.1065 29.318H23.8097C26.7827 29.318 29.2018 26.8978 29.2018 23.9244V16.2205C29.2018 13.2478 26.7817 10.8291 23.8083 10.8291H16.1043ZM25.5041 13.7873C25.9123 13.7873 26.2436 14.1186 26.2436 14.5269C26.2436 14.9351 25.9123 15.2664 25.5041 15.2664C25.0958 15.2664 24.7645 14.9351 24.7645 14.5269C24.7645 14.1186 25.0958 13.7873 25.5041 13.7873ZM19.9574 15.2664C22.6087 15.2664 24.7645 17.4222 24.7645 20.0735C24.7645 22.7249 22.6083 24.8807 19.9574 24.8807C17.3061 24.8807 15.1503 22.7245 15.1503 20.0735C15.1503 17.4226 17.3061 15.2664 19.9574 15.2664ZM19.9574 16.7455C18.1192 16.7455 16.6294 18.2354 16.6294 20.0735C16.6294 21.9117 18.1192 23.4015 19.9574 23.4015C21.7956 23.4015 23.2854 21.9117 23.2854 20.0735C23.2854 18.2354 21.7956 16.7455 19.9574 16.7455Z" fill="#011222"/>
</svg>
