<svg width="40" height="40" viewBox="0 0 40 40" fill="none" xmlns="http://www.w3.org/2000/svg">
<path d="M6.10352e-05 8.29286C6.10352e-05 3.71392 3.71203 0.00195312 8.29097 0.00195312H31.7092C36.2881 0.00195312 40.0001 3.71392 40.0001 8.29286V31.711C40.0001 36.29 36.2881 40.002 31.7092 40.002H8.29097C3.71203 40.002 6.10352e-05 36.29 6.10352e-05 31.711V8.29286Z" fill="#EAEBF0"/>
<path d="M20.0721 10.6074C14.8444 10.6074 10.6058 14.846 10.6058 20.0737C10.6058 21.8496 11.1047 23.5053 11.9555 24.9255L10.6906 29.54L15.4037 28.3028C16.7821 29.0865 18.3733 29.54 20.0721 29.54C25.2999 29.54 29.5385 25.3015 29.5385 20.0737C29.5385 14.846 25.2999 10.6074 20.0721 10.6074ZM16.832 15.658C16.9858 15.658 17.1439 15.657 17.2803 15.6641C17.4491 15.6681 17.6329 15.6804 17.8088 16.0693C18.0178 16.5316 18.473 17.6913 18.5314 17.8088C18.5898 17.9264 18.6311 18.0649 18.5499 18.2187C18.4726 18.3765 18.4324 18.4719 18.3188 18.6116C18.2012 18.7473 18.0725 18.9158 17.966 19.0183C17.8484 19.1359 17.727 19.2647 17.8627 19.499C17.9984 19.7333 18.4696 20.5014 19.1662 21.1214C20.0615 21.9213 20.817 22.1672 21.0521 22.2847C21.2871 22.4022 21.4233 22.3839 21.559 22.2261C21.6986 22.0723 22.1454 21.5445 22.3031 21.3094C22.457 21.0743 22.614 21.115 22.827 21.1923C23.0431 21.2696 24.1958 21.8374 24.4309 21.955C24.666 22.0725 24.8201 22.1307 24.8793 22.2261C24.94 22.3248 24.9401 22.7942 24.7452 23.3416C24.5504 23.8883 23.5936 24.417 23.1644 24.4541C22.7313 24.4943 22.3272 24.6487 20.3495 23.8701C17.964 22.9306 16.4596 20.4873 16.342 20.3295C16.2245 20.1757 15.3868 19.0592 15.3868 17.9075C15.3868 16.7518 15.9927 16.1858 16.2049 15.9507C16.421 15.7156 16.6742 15.658 16.832 15.658Z" fill="#011222"/>
</svg>
