<svg width="40" height="40" viewBox="0 0 40 40" fill="none" xmlns="http://www.w3.org/2000/svg">
<path d="M6.10352e-05 8.29286C6.10352e-05 3.71392 3.71203 0.00195312 8.29097 0.00195312H31.7092C36.2881 0.00195312 40.0001 3.71392 40.0001 8.29286V31.711C40.0001 36.29 36.2881 40.002 31.7092 40.002H8.29097C3.71203 40.002 6.10352e-05 36.29 6.10352e-05 31.711V8.29286Z" fill="#EAEBF0"/>
<path d="M25.0732 12.3662H27.8306L21.8064 19.2515L28.8934 28.6208H23.3444L18.9982 22.9383L14.0251 28.6208H11.266L17.7095 21.2562L10.9109 12.3662H16.6008L20.5294 17.5602L25.0732 12.3662ZM24.1054 26.9703H25.6333L15.7706 13.93H14.131L24.1054 26.9703Z" fill="#011222"/>
</svg>
